<svg xmlns="http://www.w3.org/2000/svg" width="100" height="100" viewBox="0 0 100 100">
  <!-- Transparent background (no background shapes) -->

  <!-- Letter F -->
  <path d="M22 20 H56 V30 H34 V42 H52 V52 H34 V80 H22 Z" fill="#FFFFFF"/>

  <!-- Robot (simple icon) -->
  <g transform="translate(58,22)">
    <!-- Antenna -->
    <line x1="16" y1="0" x2="16" y2="7" stroke="#FFFFFF" stroke-width="2" stroke-linecap="round"/>
    <circle cx="16" cy="0" r="3" fill="#FFFFFF"/>

    <!-- Head -->
    <rect x="2" y="7" width="28" height="24" rx="6" fill="none" stroke="#FFFFFF" stroke-width="2"/>
    <!-- Eyes -->
    <circle cx="11" cy="19" r="3" fill="#FFFFFF"/>
    <circle cx="21" cy="19" r="3" fill="#FFFFFF"/>
    <!-- Mouth -->
    <rect x="10" y="25" width="12" height="3" rx="1.5" fill="#FFFFFF" opacity="0.85"/>

    <!-- Body -->
    <rect x="6" y="33" width="20" height="18" rx="5" fill="none" stroke="#FFFFFF" stroke-width="2"/>
    <!-- Chest light -->
    <rect x="14" y="39" width="4" height="6" rx="2" fill="#FFFFFF"/>

    <!-- Arms -->
    <line x1="2" y1="39" x2="-3" y2="45" stroke="#FFFFFF" stroke-width="2" stroke-linecap="round"/>
    <line x1="30" y1="39" x2="35" y2="45" stroke="#FFFFFF" stroke-width="2" stroke-linecap="round"/>

    <!-- Legs -->
    <rect x="10" y="51" width="5" height="8" rx="2" fill="#FFFFFF"/>
    <rect x="17" y="51" width="5" height="8" rx="2" fill="#FFFFFF"/>
  </g>
</svg>